<svg width="22" height="21" viewBox="0 0 22 21" fill="none" xmlns="http://www.w3.org/2000/svg">
<path d="M8.19373 19.6282C12.719 19.6282 16.3875 15.2343 16.3875 9.81412C16.3875 4.39393 12.719 0 8.19373 0C3.66846 0 0 4.39393 0 9.81412C0 15.2343 3.66846 19.6282 8.19373 19.6282Z" fill="#3C75EF"/>
<path d="M6.09148 16.7988C5.06149 15.1876 4.4535 13.2468 4.34443 11.2217C4.23536 9.19664 4.63012 7.1783 5.47874 5.42194C6.32736 3.66557 7.59175 2.25007 9.11203 1.35441C10.6323 0.458758 12.3402 0.123189 14.0197 0.390134C15.6992 0.657078 17.2749 1.51455 18.5475 2.85412C19.8202 4.19369 20.7326 5.95517 21.1694 7.91585C21.6062 9.87652 21.5478 11.9483 21.0016 13.8692C20.4553 15.7901 19.4458 17.4739 18.1006 18.7076C16.2958 20.3589 14.0179 21.0854 11.7665 20.7275C9.51515 20.3697 7.47422 18.9568 6.09148 16.7988ZM19.1028 4.86595C18.1623 3.39485 16.8788 2.2908 15.4145 1.69342C13.9502 1.09605 12.3709 1.03218 10.8763 1.50988C9.38171 1.98758 8.03893 2.98541 7.01779 4.37717C5.99665 5.76894 5.343 7.49214 5.13951 9.32886C4.93602 11.1656 5.19185 13.0333 5.8746 14.6959C6.55735 16.3585 7.63637 17.7412 8.97523 18.6693C10.3141 19.5974 11.8526 20.0291 13.3963 19.9098C14.94 19.7905 16.4195 19.1256 17.6477 17.9992C19.2927 16.487 20.3697 14.255 20.6425 11.7929C20.9153 9.33083 20.3615 6.83966 19.1028 4.86595Z" fill="#3F3D56"/>
</svg>
